<?xml version="1.0" encoding="UTF-8"?>
<svg id="Ebene_2" data-name="Ebene 2" xmlns="http://www.w3.org/2000/svg" viewBox="0 0 4500 4500">
  <defs>
    <style>
      .cls-1 {
        fill: #3f3f3f;
        stroke-width: 0px;
      }
    </style>
  </defs>
  <g id="Layer_1" data-name="Layer 1">
    <g>
      <rect class="cls-1" y="4284.17" width="4500" height="1"/>
      <rect class="cls-1" y="4071.03" width="4500" height="1"/>
      <rect class="cls-1" y="3855.7" width="4500" height="1"/>
      <rect class="cls-1" y="3642.57" width="4500" height="1"/>
      <rect class="cls-1" y="3427.23" width="4500" height="1"/>
      <rect class="cls-1" y="3214.1" width="4500" height="1"/>
      <rect class="cls-1" y="2998.77" width="4500" height="1"/>
      <rect class="cls-1" y="2785.63" width="4500" height="1"/>
      <rect class="cls-1" y="2570.3" width="4500" height="1"/>
      <rect class="cls-1" y="2357.17" width="4500" height="1"/>
      <rect class="cls-1" y="2141.83" width="4500" height="1"/>
      <rect class="cls-1" y="1928.7" width="4500" height="1"/>
      <rect class="cls-1" y="1713.37" width="4500" height="1"/>
      <rect class="cls-1" y="1500.23" width="4500" height="1"/>
      <rect class="cls-1" y="1284.9" width="4500" height="1"/>
      <rect class="cls-1" y="1071.77" width="4500" height="1"/>
      <rect class="cls-1" y="856.43" width="4500" height="1"/>
      <rect class="cls-1" y="643.3" width="4500" height="1"/>
      <rect class="cls-1" y="427.97" width="4500" height="1"/>
      <rect class="cls-1" y="214.83" width="4500" height="1"/>
      <rect class="cls-1" x="4285.27" width="1" height="4500"/>
      <rect class="cls-1" x="4071.03" width="1" height="4500"/>
      <rect class="cls-1" x="3856.8" width="1" height="4500"/>
      <rect class="cls-1" x="3642.57" width="1" height="4500"/>
      <rect class="cls-1" x="3428.33" width="1" height="4500"/>
      <rect class="cls-1" x="3214.1" width="1" height="4500"/>
      <rect class="cls-1" x="2999.87" width="1" height="4500"/>
      <rect class="cls-1" x="2785.63" width="1" height="4500"/>
      <rect class="cls-1" x="2571.4" width="1" height="4500"/>
      <rect class="cls-1" x="2357.17" width="1" height="4500"/>
      <rect class="cls-1" x="2141.83" width="1" height="4500"/>
      <rect class="cls-1" x="1927.6" width="1" height="4500"/>
      <rect class="cls-1" x="1713.37" width="1" height="4500"/>
      <rect class="cls-1" x="1499.13" width="1" height="4500"/>
      <rect class="cls-1" x="1284.9" width="1" height="4500"/>
      <rect class="cls-1" x="1070.67" width="1" height="4500"/>
      <rect class="cls-1" x="856.43" width="1" height="4500"/>
      <rect class="cls-1" x="642.2" width="1" height="4500"/>
      <rect class="cls-1" x="427.97" width="1" height="4500"/>
      <rect class="cls-1" x="213.73" width="1" height="4500"/>
    </g>
  </g>
</svg>