<?xml version="1.0" encoding="UTF-8"?>
<svg id="Ebene_2" data-name="Ebene 2" xmlns="http://www.w3.org/2000/svg" version="1.1" viewBox="0 0 4500 4500">
  <defs>
    <style>
      .cls-1 {
        fill: #eaeaea;
        stroke-width: 0px;
      }
    </style>
  </defs>
  <g id="Layer_1" data-name="Layer 1">
    <g>
      <rect class="cls-1" y="4284.2" width="4500" height="1"/>
      <rect class="cls-1" y="4071" width="4500" height="1"/>
      <rect class="cls-1" y="3855.7" width="4500" height="1"/>
      <rect class="cls-1" y="3642.6" width="4500" height="1"/>
      <rect class="cls-1" y="3427.2" width="4500" height="1"/>
      <rect class="cls-1" y="3214.1" width="4500" height="1"/>
      <rect class="cls-1" y="2998.8" width="4500" height="1"/>
      <rect class="cls-1" y="2785.6" width="4500" height="1"/>
      <rect class="cls-1" y="2570.3" width="4500" height="1"/>
      <rect class="cls-1" y="2357.2" width="4500" height="1"/>
      <rect class="cls-1" y="2141.8" width="4500" height="1"/>
      <rect class="cls-1" y="1928.7" width="4500" height="1"/>
      <rect class="cls-1" y="1713.4" width="4500" height="1"/>
      <rect class="cls-1" y="1500.2" width="4500" height="1"/>
      <rect class="cls-1" y="1284.9" width="4500" height="1"/>
      <rect class="cls-1" y="1071.8" width="4500" height="1"/>
      <rect class="cls-1" y="856.4" width="4500" height="1"/>
      <rect class="cls-1" y="643.3" width="4500" height="1"/>
      <rect class="cls-1" y="428" width="4500" height="1"/>
      <rect class="cls-1" y="214.8" width="4500" height="1"/>
      <rect class="cls-1" x="4285.3" y="0" width="1" height="4500"/>
      <rect class="cls-1" x="4071" y="0" width="1" height="4500"/>
      <rect class="cls-1" x="3856.8" y="0" width="1" height="4500"/>
      <rect class="cls-1" x="3642.6" y="0" width="1" height="4500"/>
      <rect class="cls-1" x="3428.3" y="0" width="1" height="4500"/>
      <rect class="cls-1" x="3214.1" y="0" width="1" height="4500"/>
      <rect class="cls-1" x="2999.9" y="0" width="1" height="4500"/>
      <rect class="cls-1" x="2785.6" y="0" width="1" height="4500"/>
      <rect class="cls-1" x="2571.4" y="0" width="1" height="4500"/>
      <rect class="cls-1" x="2357.2" y="0" width="1" height="4500"/>
      <rect class="cls-1" x="2141.8" y="0" width="1" height="4500"/>
      <rect class="cls-1" x="1927.6" y="0" width="1" height="4500"/>
      <rect class="cls-1" x="1713.4" y="0" width="1" height="4500"/>
      <rect class="cls-1" x="1499.1" y="0" width="1" height="4500"/>
      <rect class="cls-1" x="1284.9" y="0" width="1" height="4500"/>
      <rect class="cls-1" x="1070.7" y="0" width="1" height="4500"/>
      <rect class="cls-1" x="856.4" y="0" width="1" height="4500"/>
      <rect class="cls-1" x="642.2" y="0" width="1" height="4500"/>
      <rect class="cls-1" x="428" y="0" width="1" height="4500"/>
      <rect class="cls-1" x="213.7" y="0" width="1" height="4500"/>
    </g>
  </g>
</svg>